<svg width="193" height="145" viewBox="0 0 193 145" fill="none" xmlns="http://www.w3.org/2000/svg">
<path d="M147.512 72.1791C147.512 48.5796 138.508 28.6568 129.973 14.2194C128.989 12.5553 131.404 10.5998 132.771 11.9668L183.598 62.7935C188.781 67.977 188.781 76.3812 183.598 81.5648L132.138 133.025C130.778 134.384 128.462 132.522 129.446 130.87C138.077 116.386 147.512 96.1657 147.512 72.1791Z" fill="#458BFA"/>
<path d="M41.1395 72.1791C41.1395 48.6533 54.5479 26.5939 64.5536 11.5201C65.6005 9.94285 63.7422 8.43694 62.4036 9.77556L9.38568 62.7935C4.20211 67.977 4.20212 76.3812 9.38568 81.5648L60.7872 132.966C62.1477 134.327 64.1719 132.658 63.1121 131.052C53.2631 116.126 41.1395 94.6729 41.1395 72.1791Z" fill="#458BFA"/>
<circle cx="96.4911" cy="72.1785" r="25.1281" transform="rotate(90 96.4911 72.1785)" fill="#458BFA"/>
</svg>
