<svg xmlns="http://www.w3.org/2000/svg" fill="none" viewBox="0 0 451 311"><g fill="#19202a"><path d="M88.412 155.118c0-50.559 28.815-97.966 50.318-130.36 2.25-3.39-1.744-6.627-4.62-3.75L20.17 134.947c-11.14 11.14-11.14 29.202 0 40.342l110.466 110.465c2.924 2.924 7.274-.662 4.996-4.113-21.166-32.078-47.22-78.182-47.22-126.523M362.469 155.118c0 50.559-28.815 97.966-50.318 130.361-2.25 3.39 1.744 6.626 4.62 3.749l113.94-113.939c11.139-11.14 11.139-29.201-.001-40.341L320.245 24.482c-2.924-2.923-7.274.662-4.996 4.113 21.166 32.078 47.22 78.183 47.22 126.523"/><circle cx="225.441" cy="155.118" r="54.002" transform="rotate(90 225.441 155.118)"/></g></svg>