<svg xmlns="http://www.w3.org/2000/svg" fill="none" viewBox="0 0 428 271"><linearGradient id="a" x1="427.25" x2="343.98" y1="0" y2="351.848" gradientUnits="userSpaceOnUse"><stop offset="0" stop-color="#68adff"/><stop offset="1" stop-color="#c786ff"/></linearGradient><path fill="url(#a)" d="M122.293 1.11c2.877-2.876 6.871.36 4.622 3.75-21.503 32.394-50.319 79.802-50.319 130.36 0 48.341 26.055 94.446 47.221 126.524 2.277 3.451-2.073 7.037-4.997 4.113L8.355 155.391c-11.14-11.14-11.14-29.201 0-40.341zm145.333 134.11c0 29.824-24.177 54.002-54.001 54.002-29.825 0-54.001-24.178-54.001-54.002s24.177-54 54.001-54 54.001 24.176 54.001 54m151.269-20.171c11.14 11.14 11.14 29.202 0 40.342l-113.939 113.94c-2.877 2.876-6.87-.361-4.621-3.75 21.503-32.395 50.319-79.802 50.319-130.361 0-48.34-26.055-94.445-47.221-126.522-2.277-3.452 2.072-7.037 4.996-4.114z"/></svg>